<svg xmlns="http://www.w3.org/2000/svg" viewBox="0 0 800 600" width="800" height="600" role="img" aria-label="tablet vert">
  <defs>
    <linearGradient id="fond" x1="0" y1="0" x2="0.4" y2="1">
      <stop offset="0%" stop-color="#f7f8fa"/>
      <stop offset="100%" stop-color="#e4e7ec"/>
    </linearGradient>
    <linearGradient id="corps" x1="0" y1="0" x2="1" y2="1">
      <stop offset="0%" stop-color="#71a68c"/>
      <stop offset="45%" stop-color="#4c7d66"/>
      <stop offset="100%" stop-color="#375c4a"/>
    </linearGradient>
    <linearGradient id="ecran" x1="0" y1="0" x2="0.6" y2="1">
      <stop offset="0%" stop-color="#20242c"/>
      <stop offset="55%" stop-color="#0d1015"/>
      <stop offset="100%" stop-color="#171b22"/>
    </linearGradient>
    <linearGradient id="lueur" x1="0" y1="0" x2="1" y2="1">
      <stop offset="0%" stop-color="#ffffff" stop-opacity=".22"/>
      <stop offset="42%" stop-color="#ffffff" stop-opacity="0"/>
    </linearGradient>
    <radialGradient id="ombre" cx="50%" cy="50%" r="50%">
      <stop offset="0%" stop-color="#0b0d12" stop-opacity=".26"/>
      <stop offset="100%" stop-color="#0b0d12" stop-opacity="0"/>
    </radialGradient>
  </defs>
  <rect width="800" height="600" fill="url(#fond)"/>
  <ellipse cx="400" cy="562" rx="200" ry="26" fill="url(#ombre)"/>
  
  <g transform="translate(400 300)">
    <rect x="-186" y="-246" width="372" height="492" rx="30" fill="url(#corps)"/>
    <rect x="-173" y="-233" width="346" height="466" rx="20" fill="url(#ecran)"/>
    <rect x="-173" y="-233" width="346" height="466" rx="20" fill="url(#lueur)"/>
    <circle cx="0" cy="-215" r="5" fill="#05070a"/>
    <rect x="-140" y="-180" width="280" height="8" rx="4" fill="#ffffff" opacity=".05"/>
    <rect x="-140" y="-150" width="196" height="8" rx="4" fill="#ffffff" opacity=".04"/>
  </g>
  <g transform="translate(258 92)">
    <rect x="-8" y="-8" width="70" height="70" rx="22" fill="url(#corps)" opacity=".96"/>
    <circle cx="27" cy="27" r="19" fill="#0e1116"/><circle cx="27" cy="27" r="9" fill="#2b3946"/>
  </g>

</svg>
